<?xml version="1.0" encoding="UTF-8"?>
<svg version="1.1" xmlns="http://www.w3.org/2000/svg" width="492" height="118">
<path d="M0 0 C162.36 0 324.72 0 492 0 C492 38.94 492 77.88 492 118 C329.64 118 167.28 118 0 118 C0 79.06 0 40.12 0 0 Z " fill="#FCFDFD" transform="translate(0,0)"/>
<path d="M0 0 C2.64 0 5.28 0 8 0 C8.2673999 0.69150146 8.5347998 1.38300293 8.81030273 2.09545898 C10.01663873 5.21053788 11.227013 8.32403193 12.4375 11.4375 C13.06881836 13.07041992 13.06881836 13.07041992 13.71289062 14.73632812 C14.11572266 15.77080078 14.51855469 16.80527344 14.93359375 17.87109375 C15.30540771 18.82943115 15.67722168 19.78776855 16.06030273 20.77514648 C16.80707816 22.93250011 16.80707816 22.93250011 18 24 C18.39832031 22.9378125 18.79664063 21.875625 19.20703125 20.78125 C21.8046875 13.85416667 24.40234375 6.92708333 27 0 C29.64 0 32.28 0 35 0 C35 11.22 35 22.44 35 34 C33.02 34 31.04 34 29 34 C28.505 24.1 28.505 24.1 28 14 C25.36 20.6 22.72 27.2 20 34 C18.35 34 16.7 34 15 34 C13.68608882 30.72973178 12.37411484 27.45868982 11.0625 24.1875 C10.68931641 23.25873047 10.31613281 22.32996094 9.93164062 21.37304688 C9.57392578 20.48037109 9.21621094 19.58769531 8.84765625 18.66796875 C8.51773682 17.84578857 8.18781738 17.0236084 7.84790039 16.17651367 C7.18283658 14.46933143 6.57937734 12.73813203 6 11 C5.67 18.59 5.34 26.18 5 34 C3.35 34 1.7 34 0 34 C0 22.78 0 11.56 0 0 Z " fill="#3A9DD3" transform="translate(152,47)"/>
<path d="M0 0 C2.93646343 1.03639886 3.84726875 1.69453751 5.265625 4.53125 C5.75289062 6.00078125 5.75289062 6.00078125 6.25 7.5 C6.58515625 8.4796875 6.9203125 9.459375 7.265625 10.46875 C8 13 8 13 8 15 C8.86625 15.268125 9.7325 15.53625 10.625 15.8125 C13.91791964 16.97111987 16.91127875 18.38209839 20 20 C18.99277209 22.70657332 18.46217504 23.78486365 15.79296875 25.02734375 C14.93316406 25.32769531 14.07335937 25.62804687 13.1875 25.9375 C8.15369886 28.22492917 6.8039601 30.68713626 4.875 35.8125 C4.2147036 37.86397262 3.57758786 39.92372364 3 42 C1.68 42 0.36 42 -1 42 C-1.23332031 41.13117188 -1.46664062 40.26234375 -1.70703125 39.3671875 C-3.83167656 32.65541045 -5.42196426 28.58864853 -11.8125 25.1875 C-13.52353366 24.41674375 -15.24783335 23.67202189 -17 23 C-16.74609375 21.140625 -16.74609375 21.140625 -16 19 C-14.22265625 17.734375 -14.22265625 17.734375 -12.0625 16.75 C-11.35222656 16.41484375 -10.64195313 16.0796875 -9.91015625 15.734375 C-8 15 -8 15 -6 15 C-5.81824219 14.41992188 -5.63648437 13.83984375 -5.44921875 13.2421875 C-3.9581894 8.60852707 -2.31666424 4.30237645 0 0 Z " fill="#2E7AEB" transform="translate(87,36)"/>
<path d="M0 0 C2.94183631 1.98402914 4.75605993 3.84105375 6.6875 6.8125 C6.6875 7.8025 6.6875 8.7925 6.6875 9.8125 C4.5 10.125 4.5 10.125 1.6875 9.8125 C0.924375 8.9875 0.16125 8.1625 -0.625 7.3125 C-3.80028104 4.3587502 -5.11168609 4.25443712 -9.25 4.24609375 C-12.41165221 5.11435051 -14.05775427 6.44212629 -16.3125 8.8125 C-17.06617903 12.16704084 -17.06617903 12.16704084 -16.875 15.8125 C-16.87628906 17.029375 -16.87757813 18.24625 -16.87890625 19.5 C-16.22641352 23.31595749 -15.32268525 24.47186997 -12.3125 26.8125 C-8.03250646 28.95249677 -2.82201645 27.90571611 1.6875 26.8125 C1.6875 24.8325 1.6875 22.8525 1.6875 20.8125 C-1.2825 20.8125 -4.2525 20.8125 -7.3125 20.8125 C-7.3125 19.1625 -7.3125 17.5125 -7.3125 15.8125 C-2.6925 15.8125 1.9275 15.8125 6.6875 15.8125 C7.078125 25.67578125 7.078125 25.67578125 6.6875 28.8125 C2.96285872 32.47506393 -1.04261394 33.71008983 -6.1875 34.125 C-11.02098731 33.97025559 -15.2609954 32.80039205 -18.82421875 29.34765625 C-23.69781887 23.63618791 -23.66113744 19.59674195 -23.5859375 12.2421875 C-23.24289364 7.93943739 -22.4142052 5.8346743 -19.3125 2.8125 C-13.06623722 -1.84157815 -7.37540461 -2.64401297 0 0 Z " fill="#469ADE" transform="translate(253.3125,48.1875)"/>
<path d="M0 0 C1.65 0 3.3 0 5 0 C6.95703125 1.984375 6.95703125 1.984375 8.8125 4.75 C9.48925781 5.74128906 10.16601562 6.73257813 10.86328125 7.75390625 C11.56839844 8.82511719 12.27351563 9.89632812 13 11 C13.76305934 12.13496513 14.52738871 13.26907741 15.29296875 14.40234375 C17.21119864 17.25762045 19.10756861 20.1275595 21 23 C21.33 15.41 21.66 7.82 22 0 C23.65 0 25.3 0 27 0 C27 11.22 27 22.44 27 34 C25.35 34 23.7 34 22 34 C20.04296875 32.015625 20.04296875 32.015625 18.1875 29.25 C17.51074219 28.25871094 16.83398438 27.26742187 16.13671875 26.24609375 C15.43160156 25.17488281 14.72648437 24.10367188 14 23 C13.23694066 21.86503487 12.47261129 20.73092259 11.70703125 19.59765625 C9.78880136 16.74237955 7.89243139 13.8724405 6 11 C5.67 18.59 5.34 26.18 5 34 C3.35 34 1.7 34 0 34 C0 22.78 0 11.56 0 0 Z " fill="#3F8BE3" transform="translate(293,47)"/>
<path d="M0 0 C1.2065625 0.0309375 1.2065625 0.0309375 2.4375 0.0625 C5.80566803 7.12269836 8.81862276 14.31215754 11.75 21.5625 C12.11158203 22.44711914 12.47316406 23.33173828 12.84570312 24.24316406 C13.18150391 25.08073242 13.51730469 25.91830078 13.86328125 26.78125 C14.16661377 27.53341797 14.46994629 28.28558594 14.7824707 29.06054688 C15.4375 31.0625 15.4375 31.0625 15.4375 34.0625 C13.4575 34.0625 11.4775 34.0625 9.4375 34.0625 C7.9525 29.1125 7.9525 29.1125 6.4375 24.0625 C2.1475 24.0625 -2.1425 24.0625 -6.5625 24.0625 C-7.036875 25.526875 -7.51125 26.99125 -8 28.5 C-9.4375 32.9375 -9.4375 32.9375 -10.5625 34.0625 C-12.22867115 34.10313832 -13.89638095 34.105221 -15.5625 34.0625 C-14.88472966 29.96715891 -13.61346367 26.34252901 -12.09375 22.484375 C-11.85338013 21.87233215 -11.61301025 21.26028931 -11.36535645 20.62969971 C-10.85966686 19.3447918 -10.35194144 18.06068344 -9.84228516 16.77734375 C-9.06020108 14.80670735 -8.28550256 12.83328329 -7.51171875 10.859375 C-3.26022556 0.0795177 -3.26022556 0.0795177 0 0 Z " fill="#4687E6" transform="translate(341.5625,46.9375)"/>
<path d="M0 0 C1.98 0 3.96 0 6 0 C7.85356088 4.68054459 9.70491657 9.36195287 11.55419922 14.04418945 C12.18412116 15.63818141 12.81465392 17.23193211 13.44580078 18.82543945 C14.35087747 21.11086466 15.2537815 23.39713758 16.15625 25.68359375 C16.44060913 26.40026718 16.72496826 27.11694061 17.01794434 27.85533142 C19 32.88612829 19 32.88612829 19 34 C17.02 34 15.04 34 13 34 C11.68 31.03 10.36 28.06 9 25 C4.71 24.67 0.42 24.34 -4 24 C-4.33 25.98 -4.66 27.96 -5 30 C-6.0625 32.375 -6.0625 32.375 -7 34 C-8.98 34 -10.96 34 -13 34 C-8.76954796 22.62581759 -4.42114172 11.30138002 0 0 Z " fill="#419CD9" transform="translate(206,47)"/>
<path d="M0 0 C6.6 0 13.2 0 20 0 C20 1.65 20 3.3 20 5 C15.05 5 10.1 5 5 5 C5 7.97 5 10.94 5 14 C9.62 14 14.24 14 19 14 C19 15.65 19 17.3 19 19 C14.71 19 10.42 19 6 19 C6 22.3 6 25.6 6 29 C10.62 29 15.24 29 20 29 C20 30.65 20 32.3 20 34 C13.4 34 6.8 34 0 34 C0 22.78 0 11.56 0 0 Z " fill="#4478E9" transform="translate(393,47)"/>
<path d="M0 0 C4.95 0 9.9 0 15 0 C15 1.65 15 3.3 15 5 C13.68 5 12.36 5 11 5 C11 12.59 11 20.18 11 28 C12.32 28 13.64 28 15 28 C15 29.65 15 31.3 15 33 C10.05 33 5.1 33 0 33 C0 31.35 0 29.7 0 28 C1.32 28 2.64 28 4 28 C4 20.41 4 12.82 4 5 C2.68 5 1.36 5 0 5 C0 3.35 0 1.7 0 0 Z " fill="#4D9AE3" transform="translate(269,48)"/>
<path d="M0 0 C8.91 0 17.82 0 27 0 C27 1.65 27 3.3 27 5 C23.37 5 19.74 5 16 5 C16 14.57 16 24.14 16 34 C14.35 34 12.7 34 11 34 C11 24.43 11 14.86 11 5 C7.37 5 3.74 5 0 5 C0 3.35 0 1.7 0 0 Z " fill="#417DE7" transform="translate(359,47)"/>
<path d="M0 0 C4.95 0 9.9 0 15 0 C15 1.32 15 2.64 15 4 C13.35 4 11.7 4 10 4 C10 11.92 10 19.84 10 28 C11.65 28 13.3 28 15 28 C15 29.65 15 31.3 15 33 C10.05 33 5.1 33 0 33 C0 31.35 0 29.7 0 28 C1.32 28 2.64 28 4 28 C4 20.08 4 12.16 4 4 C2.68 4 1.36 4 0 4 C0 2.68 0 1.36 0 0 Z " fill="#2E9BCD" transform="translate(128,48)"/>
<path d="M0 0 C0.99 0 1.98 0 3 0 C3.33 1.65 3.66 3.3 4 5 C3.01 5.66 2.02 6.32 1 7 C1 8.65 1 10.3 1 12 C4.3 13.65 7.6 15.3 11 17 C10.67 17.99 10.34 18.98 10 20 C7.9375 20.6875 7.9375 20.6875 6 21 C5.87625 21.886875 5.7525 22.77375 5.625 23.6875 C5.05587264 26.70387502 4.23385564 29.20326054 3 32 C2.01 31.67 1.02 31.34 0 31 C-0.7734375 28.78515625 -0.7734375 28.78515625 -1.375 26.0625 C-2.32158125 22.01218452 -2.32158125 22.01218452 -5.4375 19.5 C-6.283125 19.335 -7.12875 19.17 -8 19 C-9.34050052 18.34786461 -10.67661368 17.68620031 -12 17 C-11 14 -11 14 -8.0625 12.3125 C-5 11 -5 11 -3 11 C-2.87625 10.113125 -2.7525 9.22625 -2.625 8.3125 C-2.05587264 5.29612498 -1.23385564 2.79673946 0 0 Z " fill="#389FFC" transform="translate(67,48)"/>
<path d="M0 0 C0.56203125 0.23203125 1.1240625 0.4640625 1.703125 0.703125 C1.373125 1.693125 1.043125 2.683125 0.703125 3.703125 C-1.359375 4.390625 -1.359375 4.390625 -3.296875 4.703125 C-3.4825 6.0334375 -3.4825 6.0334375 -3.671875 7.390625 C-4.24100236 10.40700002 -5.06301936 12.90638554 -6.296875 15.703125 C-7.286875 15.373125 -8.276875 15.043125 -9.296875 14.703125 C-10.7446672 11.80754059 -11.296875 9.96123562 -11.296875 6.703125 C-9.46875 4.84375 -9.46875 4.84375 -7.046875 2.953125 C-6.25796875 2.31890625 -5.4690625 1.6846875 -4.65625 1.03125 C-2.296875 -0.296875 -2.296875 -0.296875 0 0 Z " fill="#2FBCEE" transform="translate(76.296875,64.296875)"/>
<path d="M0 0 C2.52845528 1.26422764 2.76422764 2.52845528 4 5 C4.66 5.33 5.32 5.66 6 6 C4.98305687 9.05082939 4.27855788 9.90372675 2 12 C1.34 12.66 0.68 13.32 0 14 C-0.2475 13.38125 -0.495 12.7625 -0.75 12.125 C-2.20628639 9.64931313 -3.37812506 9.04874998 -6 8 C-6 7.34 -6 6.68 -6 6 C-5.38125 5.938125 -4.7625 5.87625 -4.125 5.8125 C-1.72238859 5.171081 -1.72238859 5.171081 -0.75 2.4375 C-0.5025 1.633125 -0.255 0.82875 0 0 Z " fill="#3183F3" transform="translate(101,73)"/>
<path d="M0 0 C0.66 0.33 1.32 0.66 2 1 C2.33 1.99 2.66 2.98 3 4 C3.99 4.66 4.98 5.32 6 6 C6 8 6 8 4.125 10 C3.42375 10.66 2.7225 11.32 2 12 C1.34 12.66 0.68 13.32 0 14 C-0.2475 13.38125 -0.495 12.7625 -0.75 12.125 C-2.20628639 9.64931313 -3.37812506 9.04874998 -6 8 C-6 7.34 -6 6.68 -6 6 C-5.38125 5.938125 -4.7625 5.87625 -4.125 5.8125 C-1.72238859 5.171081 -1.72238859 5.171081 -0.75 2.4375 C-0.5025 1.633125 -0.255 0.82875 0 0 Z " fill="#37B7B7" transform="translate(70,30)"/>
<path d="M0 0 C0.66 0 1.32 0 2 0 C2.50615298 1.26839526 3.00469099 2.53983102 3.5 3.8125 C3.91765625 4.87404297 3.91765625 4.87404297 4.34375 5.95703125 C5 8 5 8 5 11 C2.36 11 -0.28 11 -3 11 C-2.01 7.37 -1.02 3.74 0 0 Z " fill="#EEF6FB" transform="translate(208,55)"/>
<path d="M0 0 C2.90408342 3.87211123 3.85079464 6.40317854 5 11 C2.03 11 -0.94 11 -4 11 C-2.68 7.37 -1.36 3.74 0 0 Z " fill="#F1F6FD" transform="translate(341,55)"/>
<path d="M0 0 C0.99 0 1.98 0 3 0 C3.33 1.65 3.66 3.3 4 5 C3.01 5.66 2.02 6.32 1 7 C0.67 7.99 0.34 8.98 0 10 C-0.99 10 -1.98 10 -3 10 C-2.01 6.7 -1.02 3.4 0 0 Z " fill="#458CFA" transform="translate(67,48)"/>
<path d="M0 0 C0.86625 0.763125 1.7325 1.52625 2.625 2.3125 C5.53600655 4.75220073 8.52943561 6.42998277 12 8 C11.67 9.32 11.34 10.64 11 12 C11 11.34 11 10.68 11 10 C10.113125 9.731875 9.22625 9.46375 8.3125 9.1875 C5.14629095 8.05244393 2.63502393 7.092519 0 5 C-0.3125 2.3125 -0.3125 2.3125 0 0 Z " fill="#E1EFF8" transform="translate(67,55)"/>
<path d="M0 0 C0.66 0.33 1.32 0.66 2 1 C0.125 5.75 0.125 5.75 -1 8 C-2.65 8 -4.3 8 -6 8 C-6 7.34 -6 6.68 -6 6 C-5.38125 5.938125 -4.7625 5.87625 -4.125 5.8125 C-1.72238859 5.171081 -1.72238859 5.171081 -0.75 2.4375 C-0.5025 1.633125 -0.255 0.82875 0 0 Z " fill="#4B81DB" transform="translate(101,73)"/>
<path d="M0 0 C0.99 0.33 1.98 0.66 3 1 C3 3 3 3 1.125 5 C0.42375 5.66 -0.2775 6.32 -1 7 C-1.66 7.66 -2.32 8.32 -3 9 C-3.33 8.01 -3.66 7.02 -4 6 C-3.34 5.01 -2.68 4.02 -2 3 C-1.34 3 -0.68 3 0 3 C0 2.01 0 1.02 0 0 Z " fill="#37CEB3" transform="translate(73,35)"/>
<path d="M0 0 C0.66 0 1.32 0 2 0 C1.34 2.31 0.68 4.62 0 7 C-0.99 6.67 -1.98 6.34 -3 6 C-2.42655063 3.13275314 -2.1385485 2.1385485 0 0 Z " fill="#2EE2C7" transform="translate(70,73)"/>
<path d="M0 0 C-1.13719419 3.41158256 -2.04342944 4.11854601 -5 6 C-5.66 6 -6.32 6 -7 6 C-6.75 4.125 -6.75 4.125 -6 2 C-3.85331506 0.61504198 -2.56128588 0 0 0 Z " fill="#29CCDB" transform="translate(73,70)"/>
<path d="M0 0 C1.98 0.495 1.98 0.495 4 1 C3.67 1.99 3.34 2.98 3 4 C0.9375 4.6875 0.9375 4.6875 -1 5 C-0.67 3.35 -0.34 1.7 0 0 Z " fill="#40C6EA" transform="translate(74,64)"/>
</svg>
